<?xml version="1.0" encoding="UTF-8" standalone="no"?><svg xmlns="http://www.w3.org/2000/svg" xmlns:xlink="http://www.w3.org/1999/xlink" contentScriptType="application/ecmascript" contentStyleType="text/css" height="457px" preserveAspectRatio="none" style="width:599px;height:457px;background:#FFFFFF;" version="1.1" viewBox="0 0 599 457" width="599px" zoomAndPan="magnify"><defs><filter height="300%" id="f13g1m09gitkkx" width="300%" x="-1" y="-1"><feGaussianBlur result="blurOut" stdDeviation="2.0"/><feColorMatrix in="blurOut" result="blurOut2" type="matrix" values="0 0 0 0 0 0 0 0 0 0 0 0 0 0 0 0 0 0 .4 0"/><feOffset dx="4.0" dy="4.0" in="blurOut2" result="blurOut3"/><feBlend in="SourceGraphic" in2="blurOut3" mode="normal"/></filter></defs><g><rect fill="#FFFFFF" filter="url(#f13g1m09gitkkx)" height="121.3359" style="stroke:#000000;stroke-width:2.0;" width="284.5" x="300.5" y="234.8281"/><rect fill="#FFFFFF" filter="url(#f13g1m09gitkkx)" height="46.2656" style="stroke:#000000;stroke-width:2.0;" width="264.5" x="310.5" y="258.9609"/><rect fill="#FFFFFF" height="43.9375" style="stroke:none;stroke-width:1.0;" width="284.5" x="300.5" y="312.2266"/><line style="stroke:#A80036;stroke-width:1.0;stroke-dasharray:5.0,5.0;" x1="32" x2="32" y1="88.2969" y2="373.1641"/><line style="stroke:#A80036;stroke-width:1.0;stroke-dasharray:5.0,5.0;" x1="129.5" x2="129.5" y1="88.2969" y2="373.1641"/><line style="stroke:#A80036;stroke-width:1.0;stroke-dasharray:5.0,5.0;" x1="258.5" x2="258.5" y1="88.2969" y2="373.1641"/><line style="stroke:#A80036;stroke-width:1.0;stroke-dasharray:5.0,5.0;" x1="376.5" x2="376.5" y1="88.2969" y2="373.1641"/><line style="stroke:#A80036;stroke-width:1.0;stroke-dasharray:5.0,5.0;" x1="504" x2="504" y1="88.2969" y2="373.1641"/><text fill="#000000" font-family="sans-serif" font-size="14" lengthAdjust="spacing" textLength="49" x="5" y="84.9951">Person</text><ellipse cx="32.5" cy="15" fill="#FEFECE" filter="url(#f13g1m09gitkkx)" rx="8" ry="8" style="stroke:#A80036;stroke-width:2.0;"/><path d="M32.5,23 L32.5,50 M19.5,31 L45.5,31 M32.5,50 L19.5,65 M32.5,50 L45.5,65 " fill="none" filter="url(#f13g1m09gitkkx)" style="stroke:#A80036;stroke-width:2.0;"/><text fill="#000000" font-family="sans-serif" font-size="14" lengthAdjust="spacing" textLength="49" x="5" y="385.1592">Person</text><ellipse cx="32.5" cy="398.4609" fill="#FEFECE" filter="url(#f13g1m09gitkkx)" rx="8" ry="8" style="stroke:#A80036;stroke-width:2.0;"/><path d="M32.5,406.4609 L32.5,433.4609 M19.5,414.4609 L45.5,414.4609 M32.5,433.4609 L19.5,448.4609 M32.5,433.4609 L45.5,448.4609 " fill="none" filter="url(#f13g1m09gitkkx)" style="stroke:#A80036;stroke-width:2.0;"/><rect fill="#FEFECE" filter="url(#f13g1m09gitkkx)" height="30.2969" style="stroke:#A80036;stroke-width:1.5;" width="80" x="87.5" y="53"/><text fill="#000000" font-family="sans-serif" font-size="14" lengthAdjust="spacing" textLength="66" x="94.5" y="72.9951">SadState</text><rect fill="#FEFECE" filter="url(#f13g1m09gitkkx)" height="30.2969" style="stroke:#A80036;stroke-width:1.5;" width="80" x="87.5" y="372.1641"/><text fill="#000000" font-family="sans-serif" font-size="14" lengthAdjust="spacing" textLength="66" x="94.5" y="392.1592">SadState</text><rect fill="#FEFECE" filter="url(#f13g1m09gitkkx)" height="30.2969" style="stroke:#A80036;stroke-width:1.5;" width="100" x="206.5" y="53"/><text fill="#000000" font-family="sans-serif" font-size="14" lengthAdjust="spacing" textLength="86" x="213.5" y="72.9951">HappyState</text><rect fill="#FEFECE" filter="url(#f13g1m09gitkkx)" height="30.2969" style="stroke:#A80036;stroke-width:1.5;" width="100" x="206.5" y="372.1641"/><text fill="#000000" font-family="sans-serif" font-size="14" lengthAdjust="spacing" textLength="86" x="213.5" y="392.1592">HappyState</text><rect fill="#FEFECE" filter="url(#f13g1m09gitkkx)" height="30.2969" style="stroke:#A80036;stroke-width:1.5;" width="108" x="320.5" y="53"/><text fill="#000000" font-family="sans-serif" font-size="14" lengthAdjust="spacing" textLength="94" x="327.5" y="72.9951">ExcitedState</text><rect fill="#FEFECE" filter="url(#f13g1m09gitkkx)" height="30.2969" style="stroke:#A80036;stroke-width:1.5;" width="108" x="320.5" y="372.1641"/><text fill="#000000" font-family="sans-serif" font-size="14" lengthAdjust="spacing" textLength="94" x="327.5" y="392.1592">ExcitedState</text><rect fill="#FEFECE" filter="url(#f13g1m09gitkkx)" height="30.2969" style="stroke:#A80036;stroke-width:1.5;" width="117" x="444" y="53"/><text fill="#000000" font-family="sans-serif" font-size="14" lengthAdjust="spacing" textLength="103" x="451" y="72.9951">SatisfiedState</text><rect fill="#FEFECE" filter="url(#f13g1m09gitkkx)" height="30.2969" style="stroke:#A80036;stroke-width:1.5;" width="117" x="444" y="372.1641"/><text fill="#000000" font-family="sans-serif" font-size="14" lengthAdjust="spacing" textLength="103" x="451" y="392.1592">SatisfiedState</text><polygon fill="#A80036" points="117.5,115.4297,127.5,119.4297,117.5,123.4297,121.5,119.4297" style="stroke:#A80036;stroke-width:1.0;"/><line style="stroke:#A80036;stroke-width:1.0;" x1="32.5" x2="123.5" y1="119.4297" y2="119.4297"/><text fill="#000000" font-family="sans-serif" font-size="13" lengthAdjust="spacing" textLength="73" x="39.5" y="114.3638">Lost Money</text><polygon fill="#A80036" points="246.5,144.5625,256.5,148.5625,246.5,152.5625,250.5,148.5625" style="stroke:#A80036;stroke-width:1.0;"/><line style="stroke:#A80036;stroke-width:1.0;stroke-dasharray:2.0,2.0;" x1="129.5" x2="252.5" y1="148.5625" y2="148.5625"/><text fill="#000000" font-family="sans-serif" font-size="13" lengthAdjust="spacing" textLength="105" x="136.5" y="143.4966">Received Money</text><polygon fill="#A80036" points="364.5,173.6953,374.5,177.6953,364.5,181.6953,368.5,177.6953" style="stroke:#A80036;stroke-width:1.0;"/><line style="stroke:#A80036;stroke-width:1.0;" x1="258.5" x2="370.5" y1="177.6953" y2="177.6953"/><text fill="#000000" font-family="sans-serif" font-size="13" lengthAdjust="spacing" textLength="74" x="265.5" y="172.6294">Win Lottery</text><line style="stroke:#A80036;stroke-width:1.0;" x1="376.5" x2="418.5" y1="206.8281" y2="206.8281"/><line style="stroke:#A80036;stroke-width:1.0;" x1="418.5" x2="418.5" y1="206.8281" y2="219.8281"/><line style="stroke:#A80036;stroke-width:1.0;" x1="377.5" x2="418.5" y1="219.8281" y2="219.8281"/><polygon fill="#A80036" points="387.5,215.8281,377.5,219.8281,387.5,223.8281,383.5,219.8281" style="stroke:#A80036;stroke-width:1.0;"/><text fill="#000000" font-family="sans-serif" font-size="13" lengthAdjust="spacing" textLength="99" x="383.5" y="201.7622">Should I donate</text><path d="M300.5,234.8281 L366.5,234.8281 L366.5,241.8281 L356.5,251.8281 L300.5,251.8281 L300.5,234.8281 " fill="#EEEEEE" style="stroke:#000000;stroke-width:1.0;"/><rect fill="none" height="121.3359" style="stroke:#000000;stroke-width:2.0;" width="284.5" x="300.5" y="234.8281"/><text fill="#000000" font-family="sans-serif" font-size="13" font-weight="bold" lengthAdjust="spacing" textLength="21" x="315.5" y="247.895">alt</text><text fill="#000000" font-family="sans-serif" font-size="11" font-weight="bold" lengthAdjust="spacing" textLength="126" x="381.5" y="247.0386">[I am good person]</text><path d="M310.5,258.9609 L388.5,258.9609 L388.5,265.9609 L378.5,275.9609 L310.5,275.9609 L310.5,258.9609 " fill="#EEEEEE" style="stroke:#000000;stroke-width:1.0;"/><rect fill="none" height="46.2656" style="stroke:#000000;stroke-width:2.0;" width="264.5" x="310.5" y="258.9609"/><text fill="#000000" font-family="sans-serif" font-size="13" font-weight="bold" lengthAdjust="spacing" textLength="33" x="325.5" y="272.0278">loop</text><text fill="#000000" font-family="sans-serif" font-size="11" font-weight="bold" lengthAdjust="spacing" textLength="82" x="403.5" y="271.1714">[100  times]</text><polygon fill="#A80036" points="492.5,293.2266,502.5,297.2266,492.5,301.2266,496.5,297.2266" style="stroke:#A80036;stroke-width:1.0;"/><line style="stroke:#A80036;stroke-width:1.0;" x1="376.5" x2="498.5" y1="297.2266" y2="297.2266"/><text fill="#000000" font-family="sans-serif" font-size="13" lengthAdjust="spacing" textLength="104" x="383.5" y="292.1606">Donating Money</text><line style="stroke:#000000;stroke-width:1.0;stroke-dasharray:2.0,2.0;" x1="300.5" x2="585" y1="313.2266" y2="313.2266"/><text fill="#000000" font-family="sans-serif" font-size="11" font-weight="bold" lengthAdjust="spacing" textLength="170" x="305.5" y="323.437">[I am not  a good person]</text><polygon fill="#A80036" points="492.5,344.1641,502.5,348.1641,492.5,352.1641,496.5,348.1641" style="stroke:#A80036;stroke-width:1.0;"/><line style="stroke:#A80036;stroke-width:1.0;" x1="376.5" x2="498.5" y1="348.1641" y2="348.1641"/><text fill="#000000" font-family="sans-serif" font-size="13" lengthAdjust="spacing" textLength="97" x="383.5" y="343.0981">Keeping Money</text><!--MD5=[19b1c43f4bd184af03cf36e2d48b5d29]
@startuml
actor Person

Person  -> SadState : Lost Money
SadState - -> HappyState : Received Money
HappyState -> ExcitedState: Win Lottery
ExcitedState -> ExcitedState : Should I donate
alt I am good person
  loop 100  times
    ExcitedState -> SatisfiedState : Donating Money
  end
else I am not  a good person
  ExcitedState -> SatisfiedState: Keeping Money
end
@enduml

PlantUML version 1.2021.15beta8(Unknown compile time)
(GPL source distribution)
Java Runtime: Java(TM) SE Runtime Environment
JVM: Java HotSpot(TM) 64-Bit Server VM
Default Encoding: UTF-8
Language: en
Country: US
--></g></svg>